# xmcd
#
# Track frame offsets:
# 150
# 13723
# 33658
# 53128
# 67108
# 88893
# 104245
# 121733
# 142440
# 155455
#
# Disc length: 2330 seconds
#
#
# Revision: 0
# Processed by: cddbd v1.5.2PL0 Copyright (c) Steve Scherf et al.
# Submitted via: Nero 7, 11, 10, 0 
#
DISCID=9709180a
DTITLE=Mickey Jupp - Some People Can't Dance
DYEAR=1982
DGENRE=Blues
TTITLE0=Superman
TTITLE1=Joggin'
TTITLE2=Virginia Weed
TTITLE3=Maybe Baby
TTITLE4=Feel Free
TTITLE5=Some People Can't Dance
TTITLE6=Taxi Driver
TTITLE7=Modern Music
TTITLE8=So That's What It Is
TTITLE9=The Gospel Song
EXTD=
EXTT0=Superman
EXTT1=Joggin'
EXTT2=Virginia Weed
EXTT3=Maybe Baby
EXTT4=Feel Free
EXTT5=Some People Can't Dance
EXTT6=Taxi Driver
EXTT7=Modern Music
EXTT8=So That's What It Is
EXTT9=The Gospel Song
PLAYORDER=
